<?xml version="1.0" encoding="UTF-8"?>
<svg id="Capa_2" data-name="Capa 2" xmlns="http://www.w3.org/2000/svg" viewBox="0 0 274.06 271.66">
  <defs>
    <style>
      .cls-1 {
        fill: #b6b6b6;
      }
    </style>
  </defs>
  <g id="Capa_1-2" data-name="Capa 1-2">
    <path class="cls-1" d="m266.24,83.45c2.26-6.69,3.42-13.88,3.29-21.36C268.9,28.41,241.5.83,207.83.02c-21.2-.51-40.1,9.41-51.95,24.99-.98,1.29-2.52,2.03-4.13,2.03h0c-7.27,0-14.4.64-21.32,1.86-6.04,1.06-12.27-.08-17.4-3.45-10.44-6.85-23.02-10.69-36.52-10.3-32.92.96-59.89,27.51-61.33,60.42-.64,14.66,3.72,28.27,11.51,39.28,3.51,4.96,4.82,11.14,3.96,17.16-.8,5.66-1.22,11.45-1.22,17.34v.02c0,1.32-.67,2.53-1.76,3.27C10.36,164.45-.8,184.62.04,207.35c1.2,32.34,27.11,58.85,59.42,60.75,9.09.53,17.79-.86,25.73-3.8s16.66-2.92,24.59-.03c13.43,4.91,27.95,7.53,43.11,7.39,66.25-.61,120.44-54.69,121.16-120.94.17-15.46-2.53-30.27-7.61-43.93-2.8-7.53-2.78-15.74-.21-23.35h0Z"/>
  </g>
</svg>