<?xml version="1.0" encoding="UTF-8"?>
<svg id="Capa_2" data-name="Capa 2" xmlns="http://www.w3.org/2000/svg" viewBox="0 0 375.56 387.28">
  <defs>
    <style>
      .cls-1 {
        fill: #b6b6b6;
      }
    </style>
  </defs>
  <g id="Capa_2-2" data-name="Capa 2-2">
    <g id="Capa_1-2" data-name="Capa 1-2">
      <path class="cls-1" d="m375.56,190.64c0-24.66-5.53-48.03-15.43-68.93-5.17-10.92-5.45-23.4-1.25-34.72,2.88-7.78,4.3-16.26,3.94-25.12C361.43,28.16,333.84.96,300.12.03c-18.44-.51-35.19,6.73-47.25,18.68-7.68,7.61-18.22,11.49-29.01,10.85-3.19-.19-6.41-.28-9.64-.28-46.65,0-88.66,19.8-118.12,51.44-6.57,7.06-16.03,10.7-25.63,9.82-3.82-.35-7.73-.36-11.72,0C26.8,93.39,1.56,119.74.07,151.77c-1.28,27.51,14.66,51.44,37.96,61.96,10.59,4.78,18.64,13.83,22.1,24.93,20.44,65.66,81.69,113.33,154.08,113.33h.69c7.65-.03,14.78,3.59,19.4,9.69,13.52,17.84,36.09,28.44,60.89,24.94,26.12-3.69,50.94-28.64,54.53-54.78,1.3-9.47.54-18.61-1.9-27.04-2.92-10.1-1.49-20.93,4.01-29.89,15.05-24.53,23.73-53.38,23.73-84.26h0Z"/>
    </g>
  </g>
</svg>