<?xml version="1.0" encoding="utf-8"?>
<!-- Generator: Adobe Illustrator 27.3.1, SVG Export Plug-In . SVG Version: 6.00 Build 0)  -->
<svg version="1.1" id="Capa_2_00000062908533514979461830000013599980368740480405_"
	 xmlns="http://www.w3.org/2000/svg" xmlns:xlink="http://www.w3.org/1999/xlink" x="0px" y="0px" viewBox="0 0 375.6 387.3"
	 style="enable-background:new 0 0 375.6 387.3;" xml:space="preserve">
<style type="text/css">
	.st0{fill:#060F36;}
</style>
<g id="Capa_2-2">
	<g id="Capa_1-2">
		<path class="st0" d="M375.6,190.6c0-24.7-5.5-48-15.4-68.9c-5.2-10.9-5.5-23.4-1.3-34.7c2.9-7.8,4.3-16.3,3.9-25.1
			C361.4,28.2,333.8,1,300.1,0c-18.4-0.5-35.2,6.7-47.3,18.7c-7.7,7.6-18.2,11.5-29,10.9c-3.2-0.2-6.4-0.3-9.6-0.3
			c-46.6,0-88.7,19.8-118.1,51.4c-6.6,7.1-16,10.7-25.6,9.8c-3.8-0.3-7.7-0.4-11.7,0c-32,2.8-57.2,29.2-58.7,61.2
			c-1.3,27.5,14.7,51.4,38,62c10.6,4.8,18.6,13.8,22.1,24.9C80.6,304.3,141.8,352,214.2,352h0.7c7.6,0,14.8,3.6,19.4,9.7
			c13.5,17.8,36.1,28.4,60.9,24.9c26.1-3.7,50.9-28.6,54.5-54.8c1.3-9.5,0.5-18.6-1.9-27c-2.9-10.1-1.5-20.9,4-29.9
			C366.9,250.4,375.6,221.5,375.6,190.6L375.6,190.6L375.6,190.6z"/>
	</g>
</g>
</svg>
