<?xml version="1.0" encoding="utf-8"?>
<!-- Generator: Adobe Illustrator 27.3.1, SVG Export Plug-In . SVG Version: 6.00 Build 0)  -->
<svg version="1.1" id="Capa_2_00000131335435686172209440000002259283344665500811_"
	 xmlns="http://www.w3.org/2000/svg" xmlns:xlink="http://www.w3.org/1999/xlink" x="0px" y="0px" viewBox="0 0 274.1 271.7"
	 style="enable-background:new 0 0 274.1 271.7;" xml:space="preserve">
<style type="text/css">
	.st0{fill:#060F36;}
</style>
<g id="Capa_1-2">
	<path class="st0" d="M266.2,83.4c2.3-6.7,3.4-13.9,3.3-21.4c-0.6-33.7-28-61.3-61.7-62.1c-21.2-0.5-40.1,9.4-51.9,25
		c-1,1.3-2.5,2-4.1,2l0,0c-7.3,0-14.4,0.6-21.3,1.9c-6,1.1-12.3-0.1-17.4-3.5c-10.4-6.9-23-10.7-36.5-10.3
		c-32.9,1-59.9,27.5-61.3,60.4c-0.6,14.7,3.7,28.3,11.5,39.3c3.5,5,4.8,11.1,4,17.2c-0.8,5.7-1.2,11.4-1.2,17.3v0
		c0,1.3-0.7,2.5-1.8,3.3c-17.3,11.8-28.5,32-27.6,54.7c1.2,32.3,27.1,58.9,59.4,60.8c9.1,0.5,17.8-0.9,25.7-3.8s16.7-2.9,24.6,0
		c13.4,4.9,27.9,7.5,43.1,7.4c66.3-0.6,120.4-54.7,121.2-120.9c0.2-15.5-2.5-30.3-7.6-43.9C263.6,99.3,263.7,91.1,266.2,83.4
		L266.2,83.4z"/>
</g>
</svg>
